<svg width="147" height="28" viewBox="0 0 147 28" fill="none" xmlns="http://www.w3.org/2000/svg">
<g clip-path="url(#clip0_1_4)">
<path d="M16.2671 1.95279C16.8066 3.07298 17.149 4.4421 17.149 6.45429C17.149 10.1156 14.5449 15.4884 12.4388 18.9112L10.1875 0.832603L0.870863 1.71423L5.13493 27.1259H15.7691C20.4378 21.0167 26.1751 12.3145 26.1751 5.61415C26.1751 3.51898 25.729 1.84907 24.7538 0.241394L16.2671 1.95279ZM41.9138 0.345115C32.2029 0.345115 27.5031 8.74653 27.5031 16.6708C27.5031 22.78 30.3977 27.6653 38.4797 27.6653C41.6648 27.6653 44.9536 26.9807 47.0597 25.9539L48.1906 18.3304C45.2026 19.8447 42.8994 20.4255 40.4924 20.4255C38.2826 20.4255 36.6226 19.2535 36.6226 16.2767C41.6233 16.2248 50.2551 14.1815 50.2551 7.48113C50.2448 3.32191 47.2568 0.345115 41.9138 0.345115ZM36.8197 11.4329C37.0687 8.4976 39.3201 6.45429 41.0319 6.45429C42.0175 6.45429 42.8475 7.03513 42.8475 8.21755C42.8475 10.655 38.5316 11.4329 36.8197 11.4329ZM70.9011 0.345115C67.4255 0.345115 64.9667 1.66237 63.1096 2.88628L63.0058 0.780742H55.1106L50.9399 27.1155H60.0594L62.954 8.64281C63.7425 8.24867 64.9148 7.70932 66.0872 7.70932C66.969 7.70932 67.7056 7.99974 67.7056 9.17179C67.7056 9.65928 67.5604 10.5409 67.5085 10.9765L64.9563 27.1052H74.0239L76.8148 9.51406C76.96 8.59095 77.1156 7.16997 77.1156 6.19499C77.126 2.68921 75.5075 0.345115 70.9011 0.345115ZM112.484 0.345115C109.101 0.345115 106.653 1.37195 104.049 3.22856C103.115 1.56902 101.258 0.345115 98.4048 0.345115C95.116 0.345115 92.6675 1.66237 90.8519 2.97963L90.6029 0.780742H82.8218L78.6511 27.1155H87.7706L90.6652 8.64281C91.4537 8.24867 92.626 7.70932 93.7984 7.70932C94.6803 7.70932 95.4169 7.99974 95.4169 9.32737C95.4169 9.66965 95.3235 10.209 95.2716 10.6446L92.6779 27.1155H101.746L104.64 8.64281C105.48 8.20718 106.601 7.70932 107.732 7.70932C108.614 7.70932 109.35 7.99974 109.35 9.32737C109.35 9.66965 109.247 10.209 109.205 10.6446L106.611 27.1155H115.679L118.47 9.52444C118.615 8.60132 118.771 7.18034 118.771 6.20536C118.76 2.68921 117.142 0.345115 112.484 0.345115ZM135.682 0.345115C125.535 0.345115 121.126 8.11383 121.126 16.4219C121.126 22.7281 123.678 27.7586 131.376 27.7586C141.772 27.7586 146.129 19.2535 146.129 11.0491C146.119 4.83624 143.328 0.345115 135.682 0.345115ZM132.642 20.7678C131.023 20.7678 130.339 19.2535 130.339 16.8057C130.339 13.5799 131.075 7.27369 134.655 7.27369C136.273 7.27369 136.813 8.73615 136.813 10.8936C136.802 14.1193 136.024 20.7678 132.642 20.7678Z" fill="#008CFF"/>
</g>
<defs>
<clipPath id="clip0_1_4">
<rect width="147" height="28" fill="white"/>
</clipPath>
</defs>
</svg>
